<?xml version="1.0" standalone="no"?>
<!DOCTYPE svg PUBLIC "-//W3C//DTD SVG 20010904//EN"
 "http://www.w3.org/TR/2001/REC-SVG-20010904/DTD/svg10.dtd">
<svg version="1.0" xmlns="http://www.w3.org/2000/svg"
 width="300.000000pt" height="200.000000pt" viewBox="0 0 300.000000 200.000000"
 preserveAspectRatio="xMidYMid meet">
<metadata>
Created by potrace 1.10, written by Peter Selinger 2001-2011
</metadata>
<g transform="translate(0.000000,200.000000) scale(0.100000,-0.100000)"
fill="#000000" stroke="none">
<path d="M204 1983 c3 -10 8 -43 11 -73 19 -211 71 -578 85 -611 13 -30 14
-36 -36 384 -29 243 -41 317 -52 317 -8 0 -11 -7 -8 -17z"/>
<path d="M370 1990 c74 -4 144 -4 155 1 11 4 -47 7 -135 7 l-155 -1 135 -7z"/>
<path d="M580 1950 c0 -26 4 -82 9 -126 6 -43 15 -134 21 -202 6 -67 18 -137
25 -155 l14 -32 1 33 c0 17 -4 32 -9 32 -4 0 -11 37 -15 83 -4 45 -9 107 -12
138 l-6 56 40 10 c23 6 95 10 161 9 67 0 121 2 121 7 0 6 -194 13 -282 10 -43
-2 -44 -1 -51 105 l-5 63 153 -2 154 -3 4 -60 3 -61 2 66 2 67 -112 7 c-62 3
-137 5 -165 4 l-53 -3 0 -46z"/>
<path d="M934 1882 c3 -65 5 -128 6 -142 0 -18 3 -21 9 -11 5 8 16 11 25 8 9
-4 16 -2 16 3 0 6 -9 10 -20 10 -18 0 -20 7 -20 63 0 34 -3 85 -6 112 l-6 51
137 -4 c107 -4 136 -2 130 8 -5 9 -33 11 -104 6 -53 -3 -113 -1 -134 3 l-38 9
5 -116z"/>
<path d="M1225 1983 c2 -10 4 -63 5 -118 1 -55 4 -93 7 -84 2 10 13 19 24 22
23 6 52 -20 45 -39 -3 -8 -1 -14 4 -14 9 0 3 168 -6 179 -2 2 -4 -23 -4 -57 0
-63 -19 -89 -21 -29 l-2 32 -7 -35 c-5 -22 -8 -27 -9 -13 0 12 -7 24 -13 26
-9 4 -8 6 2 6 13 1 13 2 0 11 -12 8 -10 10 8 10 19 0 22 4 16 22 -3 12 -13 28
-20 36 -30 29 -15 34 89 29 56 -3 103 -6 105 -6 1 -1 3 -43 4 -93 l2 -93 5
100 c3 55 6 101 5 102 0 1 -51 5 -113 8 -62 2 -116 7 -121 10 -4 3 -7 -3 -5
-12z"/>
<path d="M1482 1870 c1 -74 3 -118 5 -97 2 20 8 37 13 37 9 0 18 -109 9 -113
-10 -4 -19 -147 -8 -147 5 0 9 33 9 73 0 53 3 68 11 57 8 -11 9 5 6 58 l-4 72
61 2 c33 1 71 1 84 0 14 0 22 4 19 11 -3 8 -34 12 -100 11 l-97 0 0 63 0 63
90 0 90 0 2 -57 1 -58 6 60 c4 33 5 63 3 68 -2 4 -45 7 -97 7 -65 0 -95 4 -98
13 -3 6 -5 -49 -5 -123z"/>
<path d="M1701 1908 c-1 -86 -3 -99 -21 -110 -11 -7 -20 -15 -20 -19 0 -11 30
-6 32 5 1 6 4 -14 8 -44 5 -41 7 -19 8 82 l2 136 95 -5 c67 -4 95 -2 95 6 0 7
-31 11 -94 11 -82 0 -95 2 -99 18 -3 9 -5 -27 -6 -80z"/>
<path d="M1914 1760 c0 -135 2 -190 3 -122 2 67 2 177 0 245 -1 67 -3 12 -3
-123z"/>
<path d="M2032 1763 c1 -131 4 -213 7 -183 3 30 9 48 12 40 4 -8 5 -28 3 -44
-2 -16 1 -37 6 -45 6 -11 10 24 10 99 1 63 4 172 6 243 4 82 2 127 -5 127 -5
0 -12 -28 -14 -62 l-3 -63 -2 63 c-1 34 -6 62 -12 62 -6 0 -9 -85 -8 -237z"/>
<path d="M2234 1900 c0 -58 1 -81 3 -52 2 28 2 76 0 105 -2 28 -3 5 -3 -53z"/>
<path d="M2248 1714 c-4 -229 -8 -288 -19 -295 -10 -6 -6 -9 14 -9 l27 0 2
253 c1 138 2 271 3 295 1 27 -3 42 -10 42 -9 0 -13 -74 -17 -286z"/>
<path d="M552 1960 c0 -19 6 -91 13 -160 l14 -125 -5 105 c-6 115 -21 241 -22
180z"/>
<path d="M1020 1951 l65 -6 -1 -32 c-1 -18 2 -33 7 -33 5 0 6 -7 3 -15 -5 -12
2 -15 27 -15 l34 1 -25 14 c-19 11 -21 14 -7 15 19 0 23 20 5 38 -8 8 -8 15 2
27 11 13 2 15 -81 13 -91 -1 -92 -2 -29 -7z"/>
<path d="M1393 1908 c0 -29 -3 -42 -11 -40 -8 1 -11 -9 -10 -28 1 -16 6 -30
11 -30 5 0 7 -18 3 -40 -4 -25 -2 -40 4 -40 5 0 10 -9 10 -21 0 -13 -4 -18
-12 -14 -7 4 -4 -1 6 -9 17 -14 18 -16 3 -16 -14 0 -17 -10 -17 -47 0 -62 9
-94 24 -86 6 3 6 0 -1 -8 -19 -20 -16 -39 7 -39 18 0 19 6 15 63 -8 112 -15
261 -15 330 0 37 -4 67 -9 67 -5 0 -9 -19 -8 -42z"/>
<path d="M312 1900 c-1 -27 15 -113 17 -92 1 7 16 12 40 12 23 0 41 -5 44 -12
6 -19 67 -17 67 2 0 12 -16 16 -72 18 -40 1 -73 4 -75 6 -2 2 -7 23 -12 47 -5
24 -9 33 -9 19z"/>
<path d="M1880 1746 c0 -120 -2 -135 -17 -139 -16 -4 -16 -5 -1 -6 12 -1 18
-12 21 -43 2 -24 4 39 5 140 1 100 0 182 -3 182 -3 0 -5 -60 -5 -134z"/>
<path d="M1182 1838 c-2 -28 2 -38 13 -38 11 0 15 10 14 38 l-2 37 -7 -35 -7
-35 -5 35 -5 35 -1 -37z"/>
<path d="M2985 1820 c-4 -7 -16 -9 -28 -6 -15 4 -17 2 -8 -7 6 -6 11 -15 11
-21 0 -5 -3 -6 -6 -3 -4 3 -15 2 -25 -4 -13 -6 -19 -6 -19 1 0 5 5 10 10 10 6
0 10 5 10 10 0 6 -11 8 -25 6 -15 -3 -25 0 -25 7 0 7 -5 4 -11 -6 -11 -18 -3
-41 11 -32 4 3 10 -2 14 -10 5 -14 56 -18 56 -4 0 3 11 4 25 1 14 -2 25 0 25
7 0 5 -7 8 -15 5 -8 -4 -15 -1 -15 5 0 6 4 11 9 11 10 0 24 30 17 37 -2 2 -7
-1 -11 -7z"/>
<path d="M1090 1810 c0 -5 14 -10 30 -10 17 0 30 5 30 10 0 6 -13 10 -30 10
-16 0 -30 -4 -30 -10z"/>
<path d="M2757 1736 c-4 -27 -6 -70 -6 -95 1 -35 4 -26 10 34 10 90 7 136 -4
61z"/>
<path d="M648 1764 c-10 -9 -9 -93 1 -119 7 -18 8 -17 13 6 6 33 -5 123 -14
113z"/>
<path d="M830 1760 c0 -5 4 -10 9 -10 5 0 16 -3 25 -6 11 -4 16 -1 16 10 0 10
-9 16 -25 16 -14 0 -25 -4 -25 -10z"/>
<path d="M907 1660 c3 -63 7 -117 9 -119 8 -9 2 195 -6 214 -6 12 -7 -24 -3
-95z"/>
<path d="M1600 1755 c0 -8 4 -15 9 -15 5 0 12 -8 14 -17 3 -10 5 -3 6 15 1 22
-4 32 -14 32 -8 0 -15 -7 -15 -15z"/>
<path d="M400 1745 c0 -10 10 -15 33 -15 18 0 38 -5 44 -11 9 -9 11 -8 9 4 -3
23 -9 27 -50 32 -27 4 -36 1 -36 -10z"/>
<path d="M1006 1752 c-3 -4 11 -9 30 -9 19 -1 34 3 34 8 0 11 -57 12 -64 1z"/>
<path d="M1174 1744 c3 -9 6 -29 6 -45 0 -16 3 -29 8 -29 4 0 6 20 4 45 -2 25
-9 45 -14 45 -6 0 -7 -7 -4 -16z"/>
<path d="M1244 1744 c3 -9 6 -27 6 -40 0 -15 6 -24 15 -24 18 0 20 40 3 40 -7
0 -5 5 5 11 25 15 21 29 -9 29 -20 0 -25 -4 -20 -16z"/>
<path d="M338 1696 l4 -55 36 5 c49 6 54 14 9 14 -30 0 -37 4 -37 19 0 30 11
51 27 51 8 0 11 5 8 10 -3 6 -16 10 -28 10 -20 0 -22 -4 -19 -54z"/>
<path d="M1090 1738 c0 -7 4 -20 10 -28 5 -9 5 -19 -2 -27 -8 -10 -4 -13 16
-13 20 0 26 5 26 21 0 11 5 29 10 40 10 17 7 19 -25 19 -21 0 -35 -5 -35 -12z"/>
<path d="M2224 1635 c0 -66 1 -92 3 -57 2 34 2 88 0 120 -2 31 -3 3 -3 -63z"/>
<path d="M2610 1715 c0 -24 4 -33 15 -31 18 3 32 16 17 16 -22 0 -12 18 14 24
16 4 32 2 42 -6 12 -10 14 -10 8 0 -7 12 6 17 17 6 10 -10 -4 -34 -16 -27 -6
4 -8 0 -4 -10 5 -12 1 -17 -12 -17 -14 0 -17 6 -13 25 2 14 0 25 -6 25 -6 0
-8 -9 -5 -20 4 -16 -1 -21 -26 -26 -43 -9 -39 -23 7 -23 63 1 88 8 88 27 0 9
3 29 7 44 l7 28 -70 -1 -70 -1 0 -33z"/>
<path d="M2980 1744 c-19 -5 -45 -44 -30 -44 5 0 10 5 10 10 0 18 18 10 23
-11 4 -15 2 -18 -7 -10 -7 6 -18 6 -25 1 -12 -7 -12 -11 1 -24 15 -14 17 -14
29 1 11 12 25 87 16 82 -1 -1 -9 -3 -17 -5z"/>
<path d="M781 1723 c0 -10 4 -27 9 -38 7 -18 8 -18 15 8 4 15 11 27 16 27 12
0 11 -5 -6 -47 -12 -29 -13 -38 -3 -45 20 -12 40 -10 32 4 -4 6 -6 33 -5 60 2
47 2 48 -29 48 -22 0 -30 -5 -29 -17z"/>
<path d="M1310 1681 c0 -33 -4 -61 -9 -63 -5 -1 -3 -14 4 -28 13 -23 14 -18
15 63 0 48 -2 87 -5 87 -3 0 -5 -27 -5 -59z"/>
<path d="M1464 1600 c0 -80 2 -112 3 -72 2 39 2 105 0 145 -1 39 -3 7 -3 -73z"/>
<path d="M2853 1717 c-16 -17 -16 -18 11 -8 36 14 39 14 24 -3 -7 -8 -16 -12
-20 -9 -11 6 -10 -5 2 -27 7 -13 7 -21 0 -25 -5 -3 -10 -1 -10 4 0 18 -17 12
-23 -8 -3 -15 0 -17 17 -13 11 3 30 11 41 19 18 12 18 13 1 13 -16 0 -16 2 -6
15 7 9 19 14 27 11 11 -5 11 -2 1 17 -7 12 -12 24 -11 27 4 14 -40 4 -54 -13z"/>
<path d="M500 1701 c0 -34 18 -51 31 -30 5 9 3 16 -9 21 -15 6 -15 7 1 7 16 1
17 3 3 16 -21 22 -26 19 -26 -14z"/>
<path d="M1673 1630 c0 -41 2 -58 4 -37 2 20 2 54 0 75 -2 20 -4 3 -4 -38z"/>
<path d="M1254 1635 c0 -24 5 -35 14 -35 10 0 12 7 8 23 -3 12 -6 28 -6 35 0
6 -4 12 -8 12 -4 0 -8 -16 -8 -35z"/>
<path d="M490 1616 c0 -21 38 -46 68 -46 16 0 11 24 -6 26 -7 1 -16 2 -22 3
-5 0 -10 9 -10 19 0 10 -7 19 -15 19 -9 0 -15 -9 -15 -21z"/>
<path d="M2910 1615 c0 -7 -7 -21 -17 -30 -9 -10 -12 -20 -7 -23 13 -9 9 -55
-4 -60 -6 -2 -8 -17 -5 -37 5 -32 4 -34 -28 -37 l-34 -4 43 -8 c25 -5 42 -14
42 -22 0 -19 16 -18 24 2 10 26 7 34 -13 34 -13 0 -18 6 -16 23 1 12 3 32 4
45 1 26 41 32 41 6 0 -8 -4 -12 -10 -9 -6 3 -7 -1 -4 -9 3 -9 1 -16 -6 -16 -6
0 -8 -5 -4 -11 3 -6 15 -9 25 -6 11 3 19 1 19 -4 0 -5 5 -9 10 -9 6 0 10 7 10
15 0 8 -9 15 -20 15 -11 0 -20 5 -20 10 0 6 4 10 10 10 6 0 5 10 -2 25 -6 14
-18 25 -25 25 -10 0 -13 9 -11 28 4 33 18 45 35 30 8 -6 13 -6 13 -1 0 5 -11
15 -25 21 -20 9 -25 9 -25 -3z"/>
<path d="M351 1598 c-1 -30 19 -37 49 -18 12 8 9 10 -12 10 -17 0 -28 6 -31
18 -3 10 -5 6 -6 -10z"/>
<path d="M780 1600 c-11 -7 -5 -10 23 -10 23 0 36 4 32 10 -8 13 -35 13 -55 0z"/>
<path d="M1546 1581 c-10 -16 25 -21 40 -6 14 13 13 15 -10 15 -14 0 -27 -4
-30 -9z"/>
<path d="M1610 1570 c0 -11 7 -20 15 -20 8 0 15 7 15 16 0 8 5 12 10 9 6 -3
10 -1 10 4 0 6 -11 11 -25 11 -18 0 -25 -5 -25 -20z"/>
<path d="M1260 1514 c0 -38 3 -45 16 -40 9 3 24 6 35 6 16 0 19 7 19 43 0 26
-3 37 -9 29 -4 -7 -6 -24 -3 -38 2 -14 0 -24 -7 -24 -6 0 -11 9 -11 19 0 11
-6 22 -12 24 -10 4 -10 6 0 6 20 2 13 21 -8 21 -17 0 -20 -7 -20 -46z"/>
<path d="M1012 1536 c-31 -7 -42 -14 -42 -27 0 -12 6 -18 18 -16 9 1 17 -2 17
-8 0 -5 -6 -9 -12 -9 -7 1 -13 -7 -13 -17 0 -10 5 -19 11 -19 5 0 7 6 3 13 -6
9 -4 9 7 2 20 -15 159 2 159 20 0 7 -9 15 -21 18 -28 7 -20 29 14 38 32 9 37
4 37 -38 0 -19 4 -32 8 -29 4 2 6 22 4 44 l-4 40 -71 -1 c-40 -1 -91 -6 -115
-11z m88 -15 c0 -5 -8 -12 -17 -14 -15 -4 -14 -5 3 -6 26 -1 28 -31 2 -31 -11
0 -17 4 -13 9 3 6 -7 9 -22 8 -18 -1 -28 3 -31 15 -2 13 6 18 35 21 21 2 39 4
41 5 1 1 2 -2 2 -7z"/>
<path d="M1610 1529 c0 -5 -6 -7 -12 -3 -10 5 -10 4 -2 -5 6 -7 23 -9 44 -4
29 5 31 8 15 14 -29 11 -45 10 -45 -2z"/>
<path d="M748 1513 c-28 -3 -38 -9 -38 -22 0 -10 7 -18 14 -18 8 0 15 3 14 6
-2 18 3 22 15 13 10 -8 21 -7 43 4 20 11 42 13 71 9 23 -3 44 -2 47 3 6 9 -98
12 -166 5z"/>
<path d="M1917 1513 c-11 -3 -16 -11 -13 -19 7 -17 -6 -18 -22 -2 -8 8 -12 8
-12 1 0 -8 49 -33 64 -33 1 0 1 14 1 30 1 17 1 29 0 29 0 -1 -8 -3 -18 -6z"/>
<path d="M2170 1491 c4 -17 6 -39 3 -51 -3 -12 0 -20 6 -20 16 0 10 92 -6 97
-9 3 -10 -4 -3 -26z"/>
<path d="M2610 1513 c32 -6 39 -19 41 -68 l1 -40 9 44 c10 54 -1 72 -45 70
-27 -2 -28 -2 -6 -6z"/>
<path d="M1223 1450 c0 -36 2 -50 4 -32 2 17 2 47 0 65 -2 17 -4 3 -4 -33z"/>
<path d="M1961 1453 c0 -27 3 -42 6 -35 2 6 10 9 16 5 6 -4 8 0 4 11 -5 12 1
19 19 26 45 18 57 13 51 -19 -4 -20 -2 -31 7 -34 10 -4 15 6 18 38 l3 43 -60
-4 c-43 -3 -54 -2 -40 5 19 9 19 10 -2 10 -21 1 -23 -3 -22 -46z"/>
<path d="M482 1483 c18 -3 28 -12 32 -29 7 -26 26 -33 26 -10 0 35 -12 46 -49
45 -28 -2 -30 -3 -9 -6z"/>
<path d="M364 1458 c3 -13 6 -38 6 -57 l0 -34 63 7 c80 8 95 11 103 19 11 10
-66 9 -104 -2 -27 -8 -34 -7 -42 9 -6 10 -10 23 -10 28 0 15 43 23 52 9 5 -7
8 -1 8 16 0 25 -3 27 -41 27 -38 0 -41 -2 -35 -22z"/>
<path d="M883 1463 c-23 -8 -14 -33 12 -33 14 0 25 5 25 11 0 5 -4 8 -9 4 -5
-3 -11 1 -13 8 -2 8 -9 12 -15 10z"/>
<path d="M1851 1456 c-1 -13 -6 -16 -18 -11 -31 11 -38 10 -38 -5 0 -17 34
-24 53 -11 8 4 12 17 9 27 -4 18 -5 18 -6 0z"/>
<path d="M2486 1448 c-14 -52 -10 -56 59 -60 44 -2 65 1 65 8 0 6 3 26 6 43
l7 31 -66 0 c-59 0 -65 -2 -71 -22z"/>
<path d="M830 1447 c0 -8 -15 -14 -37 -15 -21 -2 -40 -5 -43 -8 -3 -3 19 -4
49 -2 42 2 55 7 57 21 1 9 -4 17 -12 17 -8 0 -14 -6 -14 -13z"/>
<path d="M2710 1414 c0 -34 1 -36 27 -29 16 4 30 9 33 11 6 7 -22 24 -31 18
-4 -2 -9 3 -12 11 -4 10 -1 12 11 9 14 -5 15 -4 2 5 -24 18 -30 13 -30 -25z"/>
<path d="M1281 1422 c0 -7 -6 -10 -12 -6 -7 4 -10 1 -7 -6 2 -8 16 -15 31 -17
23 -3 27 0 26 19 -1 17 -3 18 -6 6 -2 -10 -8 -18 -13 -18 -5 0 -11 8 -13 18
-3 9 -5 11 -6 4z"/>
<path d="M2400 1420 c0 -5 14 -10 31 -10 17 0 28 4 24 10 -3 6 -17 10 -31 10
-13 0 -24 -4 -24 -10z"/>
<path d="M660 1401 c-62 -12 -63 -14 -57 -115 5 -90 21 -156 38 -156 5 0 3 12
-3 28 -6 15 -12 57 -12 94 l-1 66 54 7 c30 4 60 9 68 12 16 6 19 -42 3 -52
-12 -7 4 -41 31 -67 23 -23 32 -23 20 0 -5 9 -16 51 -25 92 -20 98 -32 107
-116 91z"/>
<path d="M950 1362 l0 -48 -71 -11 c-39 -7 -77 -17 -83 -24 -8 -9 -6 -10 9 -4
11 5 50 13 88 18 l67 11 0 53 c0 29 -2 53 -5 53 -3 0 -5 -22 -5 -48z"/>
<path d="M1684 1388 c-2 -4 -2 -25 1 -47 5 -40 4 -41 -24 -41 -20 0 -31 6 -34
18 -4 16 -5 16 -6 0 -1 -22 -9 -23 -31 -3 -14 12 -17 12 -27 -4 -11 -17 -6
-18 55 -20 36 -1 67 -3 68 -4 1 -1 4 -27 7 -58 l7 -56 -30 5 c-28 4 -30 2 -30
-27 l0 -31 20 20 c15 15 29 19 53 16 18 -3 53 -8 80 -11 67 -9 82 -33 72 -123
-3 -37 -10 -83 -15 -104 -7 -32 -5 -37 13 -42 27 -7 17 -16 -25 -23 -18 -2
-36 -8 -40 -11 -12 -12 -13 -81 -1 -93 8 -8 4 -18 -13 -36 -20 -21 -24 -37
-24 -84 0 -32 5 -61 10 -64 6 -3 10 -24 10 -46 0 -25 5 -39 13 -39 7 0 13 -8
13 -17 1 -10 4 -26 9 -35 5 -14 2 -18 -15 -18 -11 0 -18 -4 -15 -10 3 -5 22
-10 41 -10 36 0 46 18 20 39 -8 7 -12 21 -9 32 4 13 -2 27 -16 40 -11 11 -21
29 -21 39 0 11 -4 20 -10 20 -6 0 -10 30 -10 70 0 54 3 70 14 70 18 0 46 38
45 60 0 10 -2 11 -6 2 -7 -19 -23 -4 -23 23 0 30 10 55 21 55 5 0 9 -9 9 -20
0 -12 7 -20 18 -20 9 0 35 -2 57 -5 22 -3 34 -3 28 1 -19 9 -16 21 7 27 11 3
20 12 20 21 0 9 5 16 11 16 6 0 10 -16 9 -37 -3 -53 -1 -58 11 -46 5 5 12 27
14 47 3 31 -1 39 -21 48 -13 6 -24 18 -24 26 0 10 -10 13 -39 10 -37 -3 -39
-2 -39 23 1 17 6 25 13 23 7 -3 15 1 18 9 3 9 16 13 34 11 24 -4 25 -3 8 5
-19 9 -14 12 18 15 13 1 47 34 47 47 0 4 -5 9 -12 11 -9 3 -9 12 1 36 8 18 11
36 7 40 -4 4 -34 -7 -67 -25 l-60 -31 -14 22 c-15 23 -40 108 -52 175 l-8 45
-60 4 c-67 4 -70 6 -60 23 5 8 26 10 64 6 56 -6 81 -23 81 -56 0 -19 63 -41
115 -41 27 0 35 -4 35 -19 0 -16 -6 -17 -52 -13 -29 2 -61 9 -71 14 -16 8 -17
7 -5 -11 13 -21 27 -26 114 -36 41 -5 52 -3 57 9 4 11 1 16 -12 16 -10 0 -18
7 -18 16 0 12 9 15 43 12 l42 -3 6 44 c3 24 6 59 6 77 l0 34 -82 2 c-188 4
-340 3 -344 -4z m270 -22 c11 1 31 6 44 9 40 10 72 -18 72 -65 l0 -40 -52 0
c-34 0 -58 6 -70 17 -14 13 -21 14 -30 5 -21 -21 -28 -13 -28 36 0 56 7 68 29
48 9 -7 25 -12 35 -10z m-174 -67 c3 -1 12 -2 20 -3 11 -1 16 -16 17 -58 l3
-56 -33 3 c-17 2 -35 4 -39 4 -6 1 -21 43 -32 92 -5 25 -4 26 27 23 17 -1 34
-4 37 -5z m230 -202 c0 -26 -54 -95 -86 -111 l-34 -16 0 33 c0 44 13 61 40 54
17 -4 20 -3 11 6 -9 9 -3 16 21 29 40 21 48 22 48 5z m-74 -227 c8 0 14 -7 14
-15 0 -8 -7 -15 -15 -15 -8 0 -14 -6 -12 -12 1 -8 -10 -14 -25 -16 -31 -4 -33
2 -15 41 7 16 18 25 25 22 8 -3 20 -5 28 -5z"/>
<path d="M2271 1338 c0 -54 2 -59 11 -36 9 26 12 27 56 22 35 -4 43 -3 32 5
-8 6 -30 11 -47 11 -28 0 -33 4 -33 24 0 14 -4 28 -10 31 -6 4 -10 -17 -9 -57z"/>
<path d="M2388 1385 c-1 -2 -2 -41 0 -88 l3 -85 47 -4 c26 -3 48 -4 48 -4 1 1
-1 15 -3 32 -5 31 -6 31 -31 18 -15 -8 -29 -14 -32 -14 -3 0 -3 25 -2 55 l4
55 59 -5 c37 -3 59 -1 59 5 0 5 -6 10 -14 10 -8 0 -16 4 -18 8 -3 9 -113 24
-120 17z"/>
<path d="M2565 1360 c3 -5 22 -10 41 -10 19 0 34 -4 34 -10 0 -5 6 -10 14 -10
15 0 26 -30 26 -72 0 -19 -5 -28 -17 -30 -93 -8 -105 -1 -101 56 1 24 -2 41
-10 44 -8 2 -12 -10 -12 -40 0 -23 -3 -53 -6 -64 -5 -20 -1 -22 48 -28 29 -4
65 -9 81 -12 19 -4 27 -1 27 8 0 10 10 13 34 10 l35 -4 4 48 3 49 2 -52 2 -53
45 0 c46 0 61 -14 25 -23 -17 -4 -20 -14 -20 -59 0 -29 -3 -76 -6 -104 l-6
-51 36 -7 c45 -9 76 0 76 20 0 11 -6 13 -20 9 -11 -4 -20 -2 -20 4 0 6 -5 11
-11 11 -5 0 -7 -5 -3 -12 4 -7 3 -8 -4 -4 -25 16 -12 33 23 30 45 -3 54 -10
48 -34 -4 -14 0 -20 11 -20 13 0 17 7 14 33 -3 28 -7 32 -35 35 -18 2 -33 7
-33 13 0 5 -11 9 -24 9 -21 0 -23 4 -20 33 1 17 3 35 3 40 1 4 15 7 32 7 29 0
30 -2 27 -35 -3 -37 19 -65 34 -43 5 9 13 9 32 0 24 -11 26 -10 25 11 0 12 -3
16 -6 10 -10 -27 -25 -12 -21 21 3 30 0 36 -20 41 -16 4 -22 11 -18 23 2 9 8
33 11 52 8 40 33 91 49 103 20 15 -39 49 -91 53 -26 2 -58 6 -70 9 -13 3 -23
1 -23 -5 0 -5 -6 -10 -14 -10 -25 0 -46 -42 -46 -92 0 -27 -4 -48 -9 -48 -5 0
-7 27 -4 60 4 40 2 60 -5 60 -16 0 -24 -18 -12 -25 13 -8 2 -55 -17 -75 -13
-13 -14 -6 -8 63 l7 77 -72 0 c-45 0 -69 -4 -65 -10z m378 -50 c5 -4 2 -22 -7
-38 -9 -17 -19 -55 -24 -84 -6 -46 -11 -53 -31 -56 -20 -3 -23 -1 -16 15 14
34 10 47 -20 62 -16 9 -31 19 -33 24 -2 4 -10 7 -17 7 -16 0 -13 43 4 64 20
23 121 27 144 6z"/>
<path d="M1314 1349 c-7 -13 14 -20 58 -21 53 -1 70 -18 76 -78 3 -38 0 -57
-16 -84 -19 -33 -19 -34 -2 -39 14 -4 20 3 25 29 3 19 10 34 14 34 15 0 22 33
9 42 -7 4 -8 8 -3 8 6 0 10 20 10 45 0 34 -4 45 -15 45 -9 0 -20 4 -25 9 -13
11 -124 20 -131 10z"/>
<path d="M1043 1343 c-28 -5 -31 -33 -4 -33 14 0 18 -5 14 -19 -3 -10 0 -22 6
-25 7 -5 11 8 11 38 0 25 -1 45 -2 45 -2 -1 -13 -4 -25 -6z"/>
<path d="M1157 1330 c-50 -9 -75 -20 -41 -19 10 0 51 6 89 13 77 15 35 19 -48
6z"/>
<path d="M2468 1332 c-13 -2 -18 -13 -18 -39 0 -29 2 -33 14 -24 13 11 31 61
24 65 -2 1 -11 1 -20 -2z"/>
<path d="M2169 1303 c0 -25 -1 -26 -9 -8 -8 19 -9 19 -9 -2 -1 -16 5 -23 18
-23 15 0 18 5 13 22 -3 13 -1 19 5 15 6 -4 13 0 17 8 4 10 -1 15 -14 15 -15 0
-20 -7 -21 -27z"/>
<path d="M2500 1286 c0 -56 15 -68 24 -18 9 54 8 62 -9 62 -11 0 -15 -12 -15
-44z"/>
<path d="M977 1293 c-16 -15 -5 -25 21 -18 39 9 46 20 14 23 -16 1 -32 -1 -35
-5z"/>
<path d="M1160 1277 c-30 -6 -61 -17 -69 -24 -11 -12 -10 -13 10 -9 13 3 51
10 84 16 32 5 64 15 69 20 12 12 -18 11 -94 -3z"/>
<path d="M534 1264 c3 -9 6 -18 6 -20 0 -2 9 -4 20 -4 11 0 20 5 20 11 0 5 -5
7 -10 4 -6 -3 -13 1 -16 9 -3 9 -11 16 -16 16 -6 0 -7 -7 -4 -16z"/>
<path d="M1304 1230 c-1 -27 -7 -56 -14 -65 -10 -13 -9 -15 8 -15 17 0 22 8
27 44 8 50 4 78 -10 83 -6 1 -10 -19 -11 -47z"/>
<path d="M1525 1270 c-11 -18 5 -30 41 -30 19 0 34 5 34 10 0 6 -4 11 -10 11
-5 1 -14 2 -19 3 -5 0 -13 4 -17 9 -10 10 -22 9 -29 -3z"/>
<path d="M306 1250 c4 -8 10 -39 15 -68 4 -30 9 -55 11 -57 2 -2 37 -5 78 -8
l76 -6 -9 68 -9 68 -84 9 c-74 8 -84 8 -78 -6z m132 -42 c7 -7 12 -22 12 -35
0 -20 -5 -23 -40 -23 -41 0 -68 26 -56 56 7 17 67 19 84 2z"/>
<path d="M1371 1261 c-10 -6 -8 -10 6 -16 17 -7 17 -8 -2 -15 -19 -8 -19 -9 3
-9 15 -1 22 5 22 18 0 24 -11 32 -29 22z"/>
<path d="M2210 1251 c0 -15 10 -19 63 -24 34 -3 70 -8 80 -12 14 -6 17 -2 17
24 l0 31 -80 0 c-71 0 -80 -2 -80 -19z"/>
<path d="M483 1247 c6 -17 22 -149 19 -160 -2 -5 1 -6 6 -3 5 3 23 -4 41 -15
18 -11 35 -19 36 -17 2 2 -1 23 -5 48 -5 25 -9 61 -10 80 0 32 -5 37 -46 57
-30 15 -44 18 -41 10z m71 -123 c9 -23 8 -24 -19 -24 -37 0 -31 35 6 39 4 1
10 -6 13 -15z"/>
<path d="M1123 1208 c-24 -5 -43 -14 -43 -20 0 -6 9 -8 23 -3 12 4 35 7 51 8
16 1 31 8 34 15 4 14 -5 14 -65 0z"/>
<path d="M2175 1205 c-16 -12 -29 -12 -59 -4 -30 8 -41 8 -47 -3 -5 -7 -7 -17
-5 -23 4 -12 77 -7 91 6 17 17 23 9 27 -37 l3 -45 -35 6 c-19 3 -43 8 -52 11
-14 4 -18 0 -18 -18 0 -21 4 -24 33 -20 26 3 34 -1 43 -21 11 -24 9 -26 -32
-37 l-44 -13 0 -92 c0 -52 -3 -100 -6 -108 -4 -11 3 -17 23 -21 46 -8 139 -16
126 -10 -7 3 -13 15 -13 27 0 18 -2 19 -10 7 -7 -10 -10 10 -10 65 0 44 -5 87
-10 95 -9 14 -13 -37 -14 -158 0 -19 -4 -22 -24 -17 -41 10 -49 24 -42 78 4
28 4 67 0 88 l-7 39 36 0 c26 0 40 6 49 20 7 12 17 18 22 15 11 -7 11 -5 14
80 1 55 3 60 25 63 13 2 43 1 66 -3 38 -5 43 -9 49 -38 8 -43 39 -117 49 -117
4 0 0 -16 -8 -36 -8 -20 -12 -40 -10 -45 3 -4 -3 -25 -13 -46 -31 -63 -14 -83
71 -83 20 0 37 -4 37 -10 0 -5 5 -10 11 -10 14 0 4 61 -13 71 -12 8 0 10 49 9
10 0 1 -130 -11 -149 -3 -5 2 -12 11 -15 15 -6 15 -9 3 -16 -11 -7 -8 -10 13
-15 17 -5 33 -2 42 5 8 7 26 10 39 6 14 -3 28 -1 31 4 4 6 3 9 -2 8 -4 -2 -8
2 -8 7 0 6 5 9 12 9 6 -1 14 9 17 21 5 18 11 22 28 17 14 -3 19 -1 14 6 -4 7
3 14 19 18 13 3 23 9 21 13 -2 3 7 11 20 18 14 7 24 7 24 1 0 -5 8 -8 18 -7 9
1 34 -5 54 -15 21 -9 46 -16 57 -16 11 0 31 -4 45 -10 14 -5 26 -6 26 -1 0 5
-20 14 -44 20 -25 6 -50 17 -58 24 -7 7 -34 19 -60 26 -45 13 -48 12 -91 -18
-25 -17 -50 -31 -56 -31 -6 0 -11 -4 -11 -9 0 -10 -108 -81 -122 -81 -5 0 -5
43 -2 95 6 79 4 98 -10 120 -16 24 -16 25 4 25 12 0 20 7 20 16 0 11 -6 15
-20 11 -11 -3 -18 -1 -14 4 3 5 12 9 20 9 10 0 14 12 14 39 l0 39 -67 7 c-49
5 -63 10 -48 16 17 7 16 8 -8 8 -24 1 -28 -3 -25 -21 3 -20 8 -23 38 -21 l35
3 -31 -16 c-25 -13 -30 -22 -30 -52 -1 -37 -1 -37 9 -10 6 16 19 30 29 34 10
3 16 9 13 14 -3 4 1 10 9 13 14 6 26 -12 26 -39 0 -8 -12 -20 -27 -26 -16 -7
-37 -19 -47 -27 -14 -12 -20 -13 -23 -3 -3 6 -9 10 -14 6 -5 -3 -9 2 -9 10 0
9 5 16 11 16 13 0 10 28 -15 140 -10 41 -23 80 -29 87 -7 7 -44 17 -82 22 -87
13 -86 13 -110 -4z m333 -281 c32 -22 28 -37 -10 -29 -25 5 -29 4 -18 -4 12
-8 7 -11 -22 -11 -21 0 -41 -1 -45 -2 -5 -1 -10 6 -11 16 -3 13 1 17 15 14 10
-2 27 4 37 14 24 22 26 22 54 2z m-96 -64 c10 0 18 -7 18 -15 0 -10 -10 -15
-30 -15 -26 0 -30 4 -30 27 0 21 3 24 12 15 7 -7 20 -12 30 -12z"/>
<path d="M840 1202 c0 -5 17 -13 38 -17 20 -3 52 -15 70 -26 21 -12 42 -17 58
-13 32 8 25 28 -11 32 -17 2 -24 7 -17 11 6 4 -5 7 -26 7 -20 0 -54 3 -74 8
-24 5 -38 5 -38 -2z"/>
<path d="M1380 1198 c0 -7 -3 -24 -6 -38 -5 -17 -3 -22 3 -15 15 15 25 65 13
65 -5 0 -10 -6 -10 -12z"/>
<path d="M1540 1198 c-25 -5 -49 -14 -54 -19 -14 -13 34 -11 74 2 39 14 50 3
50 -54 0 -27 -5 -39 -17 -44 -10 -4 -21 -10 -24 -15 -3 -5 -20 -12 -37 -17
-31 -9 -32 -9 -33 22 -1 18 -1 37 1 42 1 6 -3 5 -10 -1 -8 -8 -9 -31 -4 -72 6
-60 7 -62 41 -68 19 -4 40 -13 48 -20 11 -12 15 -9 25 22 13 40 10 46 -24 50
-18 2 -26 -3 -30 -21 -4 -17 -11 -22 -26 -18 -34 9 -25 41 14 49 19 3 37 12
40 20 3 8 14 14 24 14 32 0 46 25 34 59 -6 16 -8 39 -5 50 3 12 1 21 -5 21 -6
0 -16 2 -24 4 -7 2 -33 -1 -58 -6z"/>
<path d="M732 1189 c2 -9 -8 -15 -29 -17 -47 -5 -45 -36 2 -52 19 -6 35 -16
35 -21 0 -10 -14 -12 -23 -3 -11 11 -77 11 -77 1 0 -6 -9 -1 -20 11 -22 24
-40 31 -21 9 6 -8 7 -18 3 -22 -4 -5 -1 -5 6 -1 7 4 15 1 18 -9 5 -12 9 -13
14 -5 6 10 13 9 30 -3 17 -12 28 -13 42 -6 23 13 39 2 18 -11 -10 -7 -11 -10
-2 -10 6 0 12 -6 12 -14 0 -10 15 -17 44 -21 37 -6 45 -11 49 -33 3 -15 4 -28
3 -30 -2 -1 -29 4 -61 13 -41 10 -62 12 -74 4 -14 -9 -14 -10 2 -5 23 7 63 -8
70 -27 5 -13 0 -13 -31 -6 -20 6 -47 15 -59 21 -13 6 -26 9 -29 5 -13 -13 9
-26 76 -42 73 -18 137 -15 150 6 8 12 -16 69 -34 81 -7 5 -5 8 4 8 22 -1 58
-31 43 -37 -18 -7 -16 -23 2 -23 8 0 15 5 15 10 0 15 40 12 41 -2 0 -7 4 -3 9
10 6 15 18 22 35 22 22 0 25 -4 25 -35 0 -19 1 -38 2 -42 1 -5 -7 -10 -16 -11
-11 -2 -16 0 -12 6 3 6 -3 13 -14 17 -21 7 -40 0 -40 -14 0 -13 70 -21 93 -10
15 7 40 6 82 -4 55 -12 60 -16 66 -46 l7 -32 -59 5 c-32 3 -68 8 -81 11 -25 6
-57 -9 -45 -22 5 -4 12 -1 17 7 8 12 13 11 30 -8 11 -12 28 -22 36 -22 8 0 13
-4 10 -9 -7 -11 -97 10 -103 25 -5 13 -43 7 -43 -7 0 -17 238 -71 261 -59 8 5
25 7 35 4 24 -6 81 14 68 25 -5 4 -33 13 -62 20 -43 11 -56 11 -65 1 -9 -10
-9 -11 0 -6 9 5 11 2 7 -9 -5 -12 -10 -13 -20 -5 -21 18 -5 40 30 40 37 0 76
23 58 34 -7 4 -12 2 -12 -3 0 -17 -27 -13 -34 5 -10 27 -7 31 24 26 17 -2 35
-13 41 -23 6 -12 20 -19 37 -18 21 1 22 2 7 6 -11 3 -24 10 -30 15 -7 7 -3 8
13 3 20 -6 22 -3 23 27 1 18 0 38 -1 43 -13 49 -12 55 8 55 12 0 24 5 28 11 5
8 -1 10 -20 7 -27 -6 -31 3 -28 72 2 25 -1 25 -131 43 -72 10 -144 21 -160 24
-23 5 -26 3 -21 -11 4 -10 -1 -25 -10 -35 -12 -13 -15 -27 -10 -45 5 -20 3
-26 -11 -26 -11 0 -15 5 -12 15 8 19 -5 26 -23 14 -8 -5 -10 -9 -4 -9 6 0 9
-13 6 -30 -2 -16 -9 -30 -16 -30 -8 0 -10 28 -8 93 l4 93 -66 12 c-36 7 -80
15 -96 19 -23 4 -30 2 -28 -8z m151 -35 c26 -5 27 -8 27 -65 0 -32 -3 -58 -7
-57 -5 0 -16 -2 -26 -7 -28 -12 -117 42 -117 71 0 6 -7 17 -15 24 -17 14 -21
45 -5 35 6 -3 10 -1 10 5 0 11 54 9 133 -6z m317 -78 l75 -12 13 -59 c23 -106
26 -100 -48 -97 -57 3 -178 25 -185 34 -8 11 -25 76 -26 102 l-1 31 -8 -30
c-8 -30 -8 -30 -9 -3 0 14 2 34 5 42 7 18 17 17 184 -8z"/>
<path d="M2470 1192 c-46 -7 -43 -20 6 -27 94 -11 109 -12 122 -8 25 9 11 19
-23 15 -23 -3 -35 0 -35 8 0 7 -7 10 -17 6 -9 -4 -19 -3 -22 1 -3 5 -17 7 -31
5z"/>
<path d="M2693 1108 c-62 -29 -109 -56 -104 -61 4 -4 29 3 54 17 25 14 48 26
51 26 3 0 5 -48 5 -106 -1 -58 2 -108 5 -111 3 -4 6 25 6 64 0 39 3 91 6 116
6 43 10 48 50 68 24 11 44 25 44 30 0 12 10 16 -117 -43z"/>
<path d="M1880 1143 c0 -5 6 -16 13 -25 11 -14 16 -14 52 2 l40 19 -37 0 c-20
1 -43 4 -52 7 -9 3 -16 2 -16 -3z"/>
<path d="M2041 1073 c1 -38 0 -75 0 -83 -1 -8 1 -46 3 -85 3 -41 0 -75 -6 -83
-8 -9 -8 -16 0 -24 7 -7 14 -10 16 -7 2 2 6 82 8 177 2 128 0 172 -9 172 -8 0
-12 -22 -12 -67z"/>
<path d="M2595 1130 c11 -18 -25 -23 -67 -11 -26 8 -44 9 -50 3 -15 -15 109
-33 155 -23 53 13 55 18 10 30 -47 14 -56 14 -48 1z"/>
<path d="M20 1113 c0 -25 43 -114 67 -138 11 -11 18 -26 16 -32 -2 -6 4 -13
13 -15 15 -2 18 -13 16 -58 -2 -54 14 -100 25 -72 8 21 23 13 23 -14 0 -18 -4
-24 -13 -21 -8 3 -20 1 -28 -4 -10 -6 -2 -9 24 -9 35 0 37 -2 37 -32 l0 -33
-100 -24 c-96 -22 -126 -42 -81 -54 25 -6 72 3 66 13 -5 8 93 50 115 50 31 0
19 119 -16 158 -13 15 -24 21 -24 14 0 -7 -4 -10 -10 -7 -5 3 -10 21 -9 38 1
31 1 31 9 7 8 -21 9 -18 7 17 -2 51 2 55 50 59 21 2 59 6 85 9 55 6 108 -15
108 -43 0 -9 11 -36 24 -59 32 -55 66 -148 66 -178 0 -14 9 -34 20 -45 12 -12
20 -33 20 -55 0 -19 5 -35 11 -35 10 0 8 26 -6 80 -6 22 40 70 68 70 l24 0
-12 69 -12 70 28 -15 c31 -16 59 -18 59 -5 0 4 -42 23 -92 41 -126 45 -127 45
-94 17 18 -16 24 -27 17 -31 -6 -4 -11 -14 -11 -22 0 -11 7 -9 30 7 39 29 43
22 14 -23 -41 -64 -48 -57 -110 96 -13 33 -24 61 -24 62 0 2 15 6 34 10 19 3
37 12 40 20 3 7 12 11 21 8 8 -3 15 -1 15 5 0 6 -12 11 -27 11 -37 0 -116 24
-107 32 3 4 -14 -1 -39 -10 -70 -27 -69 -35 3 -28 48 5 61 4 50 -4 -11 -8 -5
-9 25 -5 37 5 38 4 15 -7 -14 -7 -28 -17 -32 -22 -4 -6 -11 -6 -20 1 -38 31
-216 25 -247 -9 -17 -18 -19 -16 -51 56 -32 75 -80 128 -80 89z m572 -338 c3
-16 1 -25 -7 -25 -7 0 -18 -6 -24 -14 -9 -11 -6 -13 14 -11 14 2 25 -1 25 -7
0 -6 -7 -8 -14 -5 -10 4 -23 -7 -36 -29 -12 -18 -26 -34 -31 -34 -5 0 -9 25
-9 55 0 42 3 55 15 55 8 0 15 5 15 10 0 6 7 10 15 10 8 0 15 7 15 16 0 23 17
8 22 -21z"/>
<path d="M286 1111 c-9 -14 13 -66 24 -55 17 18 16 58 -2 62 -9 2 -19 -1 -22
-7z"/>
<path d="M412 1082 c2 -25 5 -27 32 -23 19 3 24 6 14 9 -10 2 -18 9 -18 17 0
7 -7 15 -15 19 -12 4 -15 -1 -13 -22z"/>
<path d="M142 1023 c2 -10 14 -17 31 -17 36 -2 34 7 -4 21 -26 10 -30 10 -27
-4z"/>
<path d="M1673 1028 c2 -43 -17 -76 -47 -85 -29 -9 -25 -11 64 -31 148 -35
146 -34 135 -23 -5 5 -23 11 -40 13 -23 2 -31 9 -34 28 -3 23 -4 24 -12 5 -7
-16 -8 -12 -7 15 2 47 11 60 18 30 l6 -25 6 28 c3 15 3 25 0 23 -3 -3 -11 2
-17 11 -11 15 -14 11 -20 -28 -8 -50 -24 -87 -25 -57 0 12 -5 15 -16 11 -14
-5 -16 -2 -11 18 3 13 9 36 12 52 4 16 3 27 -3 27 -5 0 -9 -6 -9 -12z"/>
<path d="M552 1013 c-6 -2 -10 -9 -6 -14 7 -12 64 -12 64 1 0 6 -4 10 -9 10
-5 0 -15 2 -23 4 -7 3 -19 2 -26 -1z"/>
<path d="M1505 962 c-9 -10 -5 -62 5 -62 6 0 8 11 4 26 -6 25 -5 26 26 19 21
-5 30 -4 26 3 -7 11 -53 22 -61 14z"/>
<path d="M1930 944 c0 -10 3 -15 6 -11 3 3 26 -3 50 -13 43 -19 44 -19 44 -1
0 20 -15 29 -67 37 -27 4 -33 2 -33 -12z"/>
<path d="M1372 903 c-17 -7 -5 -23 19 -23 10 0 19 -4 19 -10 0 -5 -9 -10 -20
-10 -20 0 -24 -9 -20 -45 2 -16 0 -17 -14 -6 -13 11 -16 11 -16 -2 0 -16 20
-27 50 -27 12 0 19 9 22 30 3 17 0 30 -6 30 -6 0 -3 7 6 16 22 22 46 11 50
-23 2 -22 8 -28 28 -28 19 0 26 6 31 30 4 17 7 26 8 22 1 -8 31 17 31 26 0 2
-30 5 -66 6 -36 1 -74 6 -84 11 -10 6 -20 10 -22 9 -2 0 -9 -3 -16 -6z"/>
<path d="M1671 861 c-18 -14 -35 -17 -69 -13 -32 4 -43 2 -38 -7 4 -6 22 -11
39 -12 18 0 40 -4 51 -8 15 -6 10 -10 -25 -20 -24 -7 -69 -24 -99 -38 l-55
-25 3 -60 c4 -56 6 -60 33 -70 23 -8 29 -16 29 -39 0 -22 -6 -32 -26 -39 -14
-6 -27 -10 -30 -10 -2 0 -4 20 -4 45 0 25 -4 45 -10 45 -17 0 -16 -52 2 -88 9
-17 9 -25 1 -30 -13 -8 -12 -211 2 -249 4 -13 3 -23 -1 -23 -5 0 -65 -29 -134
-65 -69 -36 -131 -65 -137 -65 -7 0 -13 12 -13 28 0 15 -7 126 -15 247 -18
273 -18 266 -1 259 16 -6 198 56 253 86 l38 21 -35 -6 c-19 -3 -93 -26 -163
-51 l-128 -45 -90 37 c-49 20 -92 34 -95 31 -3 -3 4 -23 16 -45 22 -39 23 -39
41 -21 10 10 25 16 34 13 14 -6 13 -10 -7 -28 -12 -11 -26 -20 -31 -18 -4 1
-3 -7 3 -18 13 -25 21 -26 14 -2 -4 12 -3 14 4 4 5 -7 7 -24 4 -38 l-4 -24 43
25 c24 14 52 25 62 25 34 0 16 -27 -33 -50 l-50 -23 2 -61 c0 -34 3 -47 5 -29
3 26 11 34 44 47 22 9 42 16 44 16 3 0 5 -18 5 -40 0 -36 -3 -41 -41 -60 -60
-31 -73 -25 -80 40 -3 30 -2 57 3 58 18 8 6 20 -17 18 -16 0 -23 -6 -20 -14 2
-7 -1 -24 -7 -38 -9 -19 -9 -30 0 -45 7 -10 12 -31 13 -46 0 -25 1 -26 9 -8 8
19 8 19 18 -5 6 -14 11 -19 11 -11 1 8 4 12 7 8 3 -3 19 0 36 8 46 19 68 9 68
-31 0 -18 -5 -36 -11 -40 -8 -5 -6 -10 5 -16 19 -11 21 -35 4 -41 -10 -3 -10
-7 -1 -18 16 -20 2 -115 -16 -111 -7 1 -10 -2 -6 -8 3 -5 15 -10 26 -10 14 0
19 7 19 28 0 20 3 23 9 12 6 -8 7 -18 5 -22 -3 -5 12 -6 33 -3 21 3 43 6 50 7
7 1 10 5 7 10 -3 4 9 8 25 8 19 0 30 5 29 12 -2 6 5 14 16 16 10 2 40 17 66
32 27 16 51 26 54 23 10 -11 7 -55 -4 -48 -5 3 -10 2 -10 -3 0 -12 30 -25 31
-14 1 4 3 21 5 37 2 17 4 78 4 138 l-1 107 25 0 c28 0 43 -15 22 -23 -17 -7
-18 -57 0 -64 8 -3 13 -20 13 -46 -1 -23 4 -54 10 -69 6 -16 6 -30 1 -33 -13
-8 -8 -43 7 -41 7 1 15 5 19 8 3 4 13 4 22 2 10 -3 6 1 -7 9 -17 10 -24 24
-25 46 -1 17 2 31 7 31 4 0 6 6 5 12 -2 7 5 12 14 12 9 -1 14 4 12 11 -3 7 7
20 22 30 23 15 32 16 66 5 22 -6 42 -9 45 -7 2 3 -9 8 -26 12 -39 8 -39 17 -2
33 37 17 59 7 58 -26 0 -50 3 -59 28 -70 14 -6 25 -7 25 -2 0 5 -9 12 -20 15
-20 6 -29 35 -11 35 8 0 -1 60 -14 97 -3 9 -38 -5 -108 -42 -57 -30 -107 -55
-110 -55 -4 0 -7 8 -7 18 0 10 -5 23 -12 30 -9 9 -9 17 0 34 21 43 25 106 9
129 -12 16 -13 28 -6 47 6 17 6 36 -1 55 -5 17 -10 58 -10 92 l0 61 58 18 c31
10 66 25 77 32 11 8 26 14 35 14 19 0 84 39 77 46 -3 3 -14 1 -24 -4 -10 -6
-40 -13 -68 -17 l-50 -6 33 21 c17 12 32 24 32 26 0 9 -16 3 -39 -15z m-573
-260 c1 -1 -2 -10 -8 -21 -10 -18 -13 -19 -25 -6 -21 21 -18 33 8 30 12 -1 23
-3 25 -3z m442 -146 c0 -29 -4 -45 -12 -45 -23 0 -35 14 -42 47 -6 25 -4 32
11 36 40 10 43 8 43 -38z"/>
<path d="M703 825 c-3 -9 3 -43 14 -77 20 -59 20 -61 2 -65 -21 -6 -16 -23 7
-23 8 0 13 4 10 9 -4 5 -1 11 6 13 9 3 9 12 0 38 -17 48 -15 70 6 70 10 0 23
-5 30 -12 7 -7 12 -9 12 -5 0 17 79 -35 85 -55 14 -48 98 -207 113 -213 27
-10 24 2 -11 57 -19 29 -45 82 -58 118 -26 76 -62 129 -87 128 -9 0 -37 7 -61
16 -54 20 -60 20 -68 1z"/>
<path d="M882 793 c8 -10 21 -33 28 -51 17 -43 35 -55 26 -17 -9 35 -43 85
-58 85 -7 0 -5 -7 4 -17z"/>
<path d="M2308 783 c-37 -25 -51 -61 -25 -65 36 -5 124 -2 121 4 -2 4 6 8 18
10 13 2 -3 4 -34 4 -32 -1 -58 -4 -58 -8 0 -15 -28 -8 -34 8 -9 23 3 36 25 29
13 -4 19 -2 19 8 0 22 21 26 55 10 l30 -14 -24 21 c-30 26 -47 25 -93 -7z"/>
<path d="M2035 760 c3 -5 22 -10 42 -10 45 0 36 11 -12 17 -24 2 -34 0 -30 -7z"/>
<path d="M2006 688 c3 -4 18 -8 34 -8 16 0 40 -4 54 -10 14 -5 28 -5 31 0 3 4
-9 12 -27 16 -47 10 -98 11 -92 2z"/>
<path d="M2190 690 c-20 -5 -15 -8 25 -13 28 -3 70 -10 95 -16 25 -5 47 -8 49
-6 2 2 -10 7 -25 10 -16 3 -49 11 -74 18 -25 7 -56 10 -70 7z"/>
<path d="M2868 683 c7 -3 10 -8 8 -11 -2 -4 15 -8 38 -8 44 -2 27 9 -29 18
-16 3 -24 3 -17 1z"/>
<path d="M750 660 c0 -5 4 -10 8 -10 4 0 15 -13 25 -29 13 -22 14 -30 5 -34
-8 -3 -6 -6 5 -6 14 -1 17 -10 17 -48 0 -85 10 -120 37 -132 36 -16 39 -14 14
12 -15 16 -23 41 -27 78 -9 99 -15 118 -40 149 -26 30 -44 39 -44 20z"/>
<path d="M1985 663 c11 -3 29 -12 40 -19 21 -15 75 -19 75 -5 0 4 -17 11 -37
14 -21 4 -51 9 -68 11 -16 3 -21 3 -10 -1z"/>
<path d="M2204 646 c11 -9 27 -16 35 -16 9 0 28 -6 43 -14 15 -8 37 -12 49 -9
17 5 20 3 14 -7 -5 -8 -4 -11 2 -7 6 4 50 -5 99 -18 49 -14 98 -24 109 -24 11
1 -2 7 -30 14 -27 7 -82 22 -121 34 -40 12 -80 18 -90 14 -11 -4 -15 -2 -11 4
6 9 -27 23 -93 38 -24 6 -24 5 -6 -9z"/>
<path d="M137 639 c-9 -6 -15 -14 -12 -19 3 -5 1 -11 -5 -15 -16 -10 -11 -25
9 -25 14 0 17 6 14 23 -4 18 2 25 24 34 22 8 24 11 8 12 -11 0 -28 -4 -38 -10z"/>
<path d="M687 626 c5 -24 7 -25 18 -9 11 15 13 15 23 -4 15 -27 28 -213 15
-213 -5 0 -14 5 -21 12 -9 9 -12 9 -12 -4 0 -8 19 -28 42 -43 25 -17 39 -22
35 -13 -5 15 -23 212 -20 236 0 6 -3 12 -7 12 -5 0 -6 8 -3 18 3 11 -1 19 -9
19 -7 0 -25 4 -39 8 -24 6 -26 4 -22 -19z"/>
<path d="M2420 631 c25 -10 49 -15 54 -13 12 7 -51 30 -79 31 -11 0 0 -8 25
-18z"/>
<path d="M458 623 c-13 -13 -22 -14 -40 -7 -23 10 -116 9 -126 -1 -3 -3 25 -5
61 -5 38 0 67 -4 67 -10 0 -5 -4 -10 -10 -10 -13 0 -13 -23 2 -57 11 -26 14
-36 17 -57 0 -5 7 -3 15 4 8 6 12 18 9 27 -7 17 9 14 76 -13 19 -8 36 -12 39
-10 2 3 -12 12 -32 20 -27 11 -34 19 -29 32 5 13 2 16 -8 12 -8 -3 -21 -9 -30
-13 -12 -5 -18 1 -22 22 -6 30 7 53 29 53 8 0 14 7 14 15 0 20 -12 19 -32 -2z"/>
<path d="M253 602 c-6 -4 -15 -20 -18 -35 -9 -33 -2 -34 80 -8 57 18 58 19 23
20 -20 1 -40 -3 -43 -9 -3 -5 -13 -10 -22 -10 -11 0 -14 7 -11 25 3 14 5 25 4
25 0 0 -6 -4 -13 -8z"/>
<path d="M2670 601 c0 -5 14 -11 31 -15 45 -9 65 -8 54 3 -14 12 -85 22 -85
12z"/>
<path d="M2600 575 c28 -16 85 -21 60 -6 -8 6 -17 8 -21 5 -4 -2 -10 0 -14 6
-3 5 -16 10 -28 10 -21 -1 -21 -1 3 -15z"/>
<path d="M2770 582 c0 -5 15 -12 33 -15 17 -4 43 -9 56 -13 16 -5 22 -4 18 3
-4 6 -23 14 -43 17 -19 4 -42 10 -50 13 -8 3 -14 1 -14 -5z"/>
<path d="M610 558 c-14 -6 -29 -12 -35 -14 -5 -2 -23 -7 -40 -13 l-30 -9 27
-1 c24 -1 108 34 108 45 0 5 0 5 -30 -8z"/>
<path d="M2050 534 c8 -3 22 -8 30 -11 8 -3 26 -8 40 -10 19 -2 21 -1 10 6 -8
5 -33 12 -55 15 -22 3 -33 3 -25 0z"/>
<path d="M596 513 c-4 -9 -1 -20 6 -24 19 -12 29 0 18 22 -13 23 -16 24 -24 2z"/>
<path d="M2165 496 c11 -7 25 -12 32 -9 7 3 13 0 13 -6 0 -6 3 -10 8 -9 4 1
20 -4 35 -10 16 -7 39 -12 52 -12 13 0 30 -6 37 -13 15 -15 70 -29 62 -15 -10
16 -154 69 -224 82 -31 6 -33 5 -15 -8z"/>
<path d="M378 465 c-10 -19 -14 -35 -9 -35 5 0 7 -10 4 -22 -4 -19 -3 -20 6
-8 6 8 11 25 11 38 0 13 5 32 10 43 6 10 7 19 3 19 -4 0 -16 -16 -25 -35z"/>
<path d="M2710 491 c8 -5 33 -11 55 -14 l40 -6 -35 14 c-40 15 -85 20 -60 6z"/>
<path d="M265 476 c-31 -10 -41 -18 -43 -37 -4 -40 10 -52 49 -41 19 6 27 11
18 11 -9 1 -25 13 -34 27 -17 26 -17 27 4 21 11 -3 21 -1 21 5 0 5 5 6 10 3 6
-4 17 -2 24 4 11 9 15 6 19 -14 3 -20 1 -25 -10 -21 -10 4 -11 1 -3 -14 18
-33 28 -31 33 8 3 26 0 41 -11 50 -18 14 -24 14 -77 -2z"/>
<path d="M523 470 c9 -6 17 -17 17 -24 0 -8 7 -16 15 -20 8 -3 15 -12 15 -21
0 -8 9 -15 20 -15 17 0 20 6 19 38 -1 20 -3 29 -6 20 -6 -23 -11 -22 -31 1
-10 11 -28 22 -42 26 -21 5 -22 4 -7 -5z"/>
<path d="M2420 470 c0 -3 47 -21 105 -40 87 -28 107 -31 118 -20 8 9 8 11 0 6
-14 -7 -154 34 -148 44 3 4 -8 5 -23 3 -21 -4 -24 -2 -12 6 12 9 9 10 -12 9
-16 -1 -28 -5 -28 -8z"/>
<path d="M2673 403 c4 -3 4 -10 1 -15 -4 -6 -2 -8 3 -5 6 4 37 -2 68 -13 65
-22 73 -24 60 -11 -9 8 -42 19 -125 43 -8 3 -12 3 -7 1z"/>
<path d="M332 364 c-19 -20 13 -46 46 -38 37 9 40 14 14 21 -12 3 -22 11 -22
17 0 16 -23 16 -38 0z"/>
<path d="M874 364 c0 -11 -12 -21 -33 -29 -23 -7 -30 -13 -20 -17 8 -3 23 0
33 8 13 9 24 10 37 4 16 -9 16 -8 2 20 -16 34 -21 37 -19 14z"/>
<path d="M2610 355 c-7 -8 -17 -12 -24 -8 -7 4 -8 3 -1 -4 6 -6 28 -13 50 -16
37 -4 38 -4 12 6 -16 7 -26 16 -23 24 7 17 1 16 -14 -2z"/>
<path d="M225 338 c3 -17 -4 -41 -20 -70 -14 -23 -25 -46 -25 -50 0 -15 20 -8
41 13 11 11 27 18 35 15 11 -4 9 2 -5 20 -19 24 -19 28 -6 55 17 33 20 53 3
24 -11 -19 -11 -19 -20 0 -6 16 -7 14 -3 -7z"/>
<path d="M2820 351 c0 -5 15 -13 33 -16 17 -4 37 -11 42 -15 6 -4 28 -10 50
-13 l40 -7 -40 15 c-22 8 -49 19 -60 24 -36 17 -65 23 -65 12z"/>
<path d="M154 331 c-16 -11 -15 -31 1 -25 8 4 15 10 15 15 0 4 6 6 14 3 8 -3
16 -2 19 3 6 10 -37 14 -49 4z"/>
<path d="M2330 303 c19 -8 48 -21 63 -29 37 -18 52 -18 34 0 -7 8 -38 21 -67
30 -66 20 -76 19 -30 -1z"/>
<path d="M860 270 c0 -5 0 -13 1 -16 0 -4 -5 -10 -11 -14 -18 -11 -2 -30 25
-30 25 0 43 16 25 22 -6 2 -12 13 -13 26 -1 21 -27 33 -27 12z"/>
<path d="M962 223 c-4 -10 -13 -19 -20 -21 -20 -4 -72 -44 -73 -56 -1 -6 -2
-18 -3 -26 0 -8 -6 -15 -13 -15 -6 0 -15 -3 -19 -8 -11 -11 -49 -8 -62 5 -7 7
-12 9 -12 5 0 -3 11 -14 25 -23 21 -14 28 -14 42 -3 13 11 17 11 20 2 5 -15
63 -18 63 -3 0 6 -4 10 -10 10 -5 0 -10 10 -10 23 0 16 16 32 60 61 59 37 81
58 39 35 -20 -10 -21 -9 -16 10 6 25 -1 28 -11 4z"/>
<path d="M174 184 c3 -8 2 -13 -3 -10 -9 6 -38 -22 -43 -43 -2 -7 4 -15 13
-16 11 -2 16 3 15 13 -2 8 11 28 27 44 29 27 29 28 7 28 -16 0 -20 -4 -16 -16z"/>
<path d="M1770 180 c0 -6 5 -10 10 -10 6 0 19 -9 30 -20 19 -19 36 -14 22 6
-11 15 -62 35 -62 24z"/>
<path d="M2675 177 c11 -7 31 -14 45 -15 l25 -1 -25 14 c-14 8 -34 14 -45 15
-19 0 -19 0 0 -13z"/>
<path d="M2520 167 c0 -15 41 -27 58 -18 13 8 14 10 2 11 -8 0 -25 3 -37 6
-13 4 -23 4 -23 1z"/>
<path d="M2380 146 c0 -8 61 -38 66 -33 3 2 -1 9 -8 14 -16 13 -58 26 -58 19z"/>
<path d="M2795 142 c14 -15 40 -19 43 -7 1 6 -10 11 -25 13 -19 2 -25 0 -18
-6z"/>
<path d="M551 131 c-8 -5 -21 -7 -30 -4 -9 3 -5 -4 9 -16 14 -11 28 -21 32
-21 13 0 22 24 10 28 -7 2 -10 8 -6 13 7 11 3 11 -15 0z"/>
<path d="M1690 135 c0 -9 62 -36 73 -32 7 3 -5 12 -25 21 -39 17 -48 19 -48
11z"/>
<path d="M428 92 c4 -12 1 -14 -14 -9 -16 6 -16 4 4 -12 15 -13 18 -21 10 -24
-7 -2 -10 -7 -7 -10 5 -7 53 6 96 26 11 5 27 6 33 2 8 -5 11 -3 8 6 -3 8 -12
13 -21 13 -9 -1 -14 2 -11 7 10 17 -13 9 -31 -11 -23 -25 -27 -25 -44 3 -13
21 -13 21 4 7 16 -13 18 -13 13 0 -2 8 -14 15 -25 16 -15 1 -20 -3 -15 -14z"/>
<path d="M1546 61 c17 -10 41 -22 53 -26 l23 -7 -21 21 c-12 12 -26 19 -31 16
-5 -3 -11 -1 -15 5 -3 5 -14 10 -23 10 -11 0 -6 -7 14 -19z"/>
</g>
</svg>
